<?xml version="1.0" standalone="no"?>
<!DOCTYPE svg PUBLIC "-//W3C//DTD SVG 20010904//EN"
 "http://www.w3.org/TR/2001/REC-SVG-20010904/DTD/svg10.dtd">
<svg version="1.0" xmlns="http://www.w3.org/2000/svg"
 width="66.000000pt" height="88.000000pt" viewBox="0 0 66.000000 88.000000"
 preserveAspectRatio="xMidYMid meet">
<metadata>
Created by potrace 1.13, written by Peter Selinger 2001-2015
</metadata>
<g transform="translate(0.000000,88.000000) scale(0.100000,-0.100000)"
fill="#000000" stroke="none">
<path d="M355 808 c-33 -4 -92 -5 -131 -2 l-71 6 -60 -73 c-33 -41 -65 -84
-72 -97 -15 -28 -7 -72 18 -104 11 -13 21 -48 24 -83 3 -33 10 -80 15 -104 10
-43 9 -46 -24 -76 -48 -45 -43 -93 17 -162 47 -55 76 -68 155 -67 99 1 164 34
265 133 92 93 131 166 137 259 l4 63 -46 44 -46 45 30 47 c33 52 39 103 14
128 -40 39 -128 56 -229 43z m166 -84 c23 -21 15 -39 -53 -111 l-50 -52 65
-29 c74 -34 91 -56 81 -110 -13 -74 -66 -152 -150 -223 -74 -61 -117 -80 -186
-81 -58 -1 -63 1 -95 35 -45 50 -44 67 3 60 l37 -6 -7 59 c-4 32 -14 87 -22
122 -8 35 -14 90 -14 123 0 48 -4 61 -20 71 -29 18 -25 33 26 99 l46 59 46 -5
c26 -3 67 -1 92 4 64 14 178 6 201 -15z"/>
<path d="M285 656 c-39 -11 -40 -13 -43 -59 -2 -26 0 -47 4 -47 21 0 155 72
161 86 13 33 -46 43 -122 20z"/>
<path d="M256 452 c-2 -4 0 -59 7 -121 12 -126 17 -133 75 -107 48 22 93 94
100 158 4 44 3 47 -26 62 -32 17 -147 22 -156 8z m114 -73 c0 -19 -21 -50 -31
-44 -5 4 -9 17 -9 31 0 17 5 24 20 24 11 0 20 -5 20 -11z"/>
</g>
</svg>
