<?xml version="1.0" standalone="no"?>
<!DOCTYPE svg PUBLIC "-//W3C//DTD SVG 20010904//EN"
 "http://www.w3.org/TR/2001/REC-SVG-20010904/DTD/svg10.dtd">
<svg version="1.0" xmlns="http://www.w3.org/2000/svg"
 width="32.000000pt" height="44.000000pt" viewBox="0 0 32.000000 44.000000"
 preserveAspectRatio="xMidYMid meet">
<metadata>
Created by potrace 1.16, written by Peter Selinger 2001-2019
</metadata>
<g transform="translate(0.000000,44.000000) scale(0.100000,-0.100000)"
fill="#000000" stroke="none">
<path d="M157 420 c-27 -5 -57 -7 -68 -5 -12 3 -33 -9 -56 -32 l-36 -37 6
-137 c4 -88 11 -150 21 -173 15 -36 17 -37 62 -34 66 4 85 32 75 111 l-7 57
28 0 c44 0 97 26 109 54 10 20 9 30 -5 50 -15 25 -15 26 9 42 19 12 25 25 25
51 0 29 -5 36 -35 49 -37 15 -55 16 -128 4z m111 -49 c10 -6 4 -15 -22 -34
-39 -31 -51 -34 -42 -12 7 18 -12 19 -65 3 -35 -10 -39 -14 -39 -44 l0 -34 59
7 c33 3 68 3 78 -1 17 -7 17 -8 -1 -22 -11 -8 -36 -14 -55 -15 -71 -1 -76 -7
-72 -88 3 -71 2 -73 -20 -69 -21 3 -24 11 -36 88 -18 124 -16 163 7 193 12 14
26 24 33 22 7 -3 35 -1 62 4 67 12 97 12 113 2z"/>
</g>
</svg>
