<?xml version="1.0" standalone="no"?>
<!DOCTYPE svg PUBLIC "-//W3C//DTD SVG 20010904//EN"
 "http://www.w3.org/TR/2001/REC-SVG-20010904/DTD/svg10.dtd">
<svg version="1.0" xmlns="http://www.w3.org/2000/svg"
 width="33.000000pt" height="44.000000pt" viewBox="0 0 33.000000 44.000000"
 preserveAspectRatio="xMidYMid meet">
<metadata>
Created by potrace 1.16, written by Peter Selinger 2001-2019
</metadata>
<g transform="translate(0.000000,44.000000) scale(0.100000,-0.100000)"
fill="#000000" stroke="none">
<path d="M177 408 c-30 -33 -34 -34 -62 -22 -25 11 -34 10 -55 -4 -55 -35 -61
-50 -56 -142 4 -81 11 -139 22 -187 2 -13 16 -30 30 -40 24 -16 28 -15 60 2
32 17 35 17 52 2 25 -23 64 -21 95 3 31 25 45 62 44 126 0 27 3 61 7 76 6 18
3 34 -8 50 -10 14 -16 43 -16 79 0 60 -8 73 -53 84 -23 6 -33 2 -60 -27z m63
-76 c0 -35 6 -66 15 -79 9 -13 11 -24 5 -28 -6 -3 -7 -30 -3 -65 4 -46 2 -65
-11 -85 -21 -32 -51 -34 -42 -3 3 13 3 47 -1 76 l-6 53 -36 -3 -36 -3 3 -56
c3 -49 1 -59 -19 -72 -12 -9 -26 -14 -29 -12 -11 7 -33 193 -29 234 5 40 34
65 49 41 5 -8 10 -30 10 -47 0 -19 5 -33 13 -34 6 -1 27 -3 45 -5 l32 -4 0 63
c0 58 11 87 32 87 4 0 8 -26 8 -58z"/>
</g>
</svg>
