<?xml version="1.0" standalone="no"?>
<!DOCTYPE svg PUBLIC "-//W3C//DTD SVG 20010904//EN"
 "http://www.w3.org/TR/2001/REC-SVG-20010904/DTD/svg10.dtd">
<svg version="1.0" xmlns="http://www.w3.org/2000/svg"
 width="37.000000pt" height="44.000000pt" viewBox="0 0 37.000000 44.000000"
 preserveAspectRatio="xMidYMid meet">
<metadata>
Created by potrace 1.16, written by Peter Selinger 2001-2019
</metadata>
<g transform="translate(0.000000,44.000000) scale(0.100000,-0.100000)"
fill="#000000" stroke="none">
<path d="M133 388 c-18 -6 -48 -26 -68 -44 -31 -28 -36 -38 -31 -61 4 -18 0
-40 -13 -63 -16 -31 -17 -39 -6 -70 7 -19 16 -48 20 -63 8 -40 48 -77 83 -77
16 0 74 22 130 50 81 39 103 54 108 75 4 18 1 32 -12 46 -25 28 -46 89 -30 89
20 0 56 44 56 67 0 40 -49 63 -132 62 -40 -1 -87 -6 -105 -11z m177 -48 c19
-12 5 -17 -75 -24 -65 -6 -85 -21 -85 -66 0 -26 1 -26 62 -22 57 4 62 3 49
-12 -8 -10 -29 -16 -55 -16 -58 0 -69 -10 -61 -54 9 -45 28 -47 96 -9 33 17
53 23 59 17 11 -11 -151 -94 -182 -94 -21 0 -26 8 -43 72 -9 37 -10 57 -3 65
6 7 11 34 13 60 2 46 5 49 46 71 46 23 150 31 179 12z"/>
</g>
</svg>
