<?xml version="1.0" standalone="no"?>
<!DOCTYPE svg PUBLIC "-//W3C//DTD SVG 20010904//EN"
 "http://www.w3.org/TR/2001/REC-SVG-20010904/DTD/svg10.dtd">
<svg version="1.0" xmlns="http://www.w3.org/2000/svg"
 width="38.000000pt" height="44.000000pt" viewBox="0 0 38.000000 44.000000"
 preserveAspectRatio="xMidYMid meet">
<metadata>
Created by potrace 1.16, written by Peter Selinger 2001-2019
</metadata>
<g transform="translate(0.000000,44.000000) scale(0.100000,-0.100000)"
fill="#000000" stroke="none">
<path d="M170 432 c-59 -27 -139 -125 -158 -195 -24 -86 12 -195 73 -224 28
-13 41 -14 72 -5 21 6 57 8 79 5 30 -4 49 0 67 12 34 22 41 45 26 94 -10 35
-9 43 10 74 11 19 21 43 21 54 0 26 -39 61 -77 69 -27 5 -30 9 -21 24 18 28 2
66 -36 84 -38 18 -35 17 -56 8z m44 -61 c9 -14 -43 -71 -64 -71 -35 0 -54
-117 -27 -170 26 -53 90 -26 101 43 8 41 -2 46 -49 25 -53 -24 -38 19 17 48
60 31 149 12 103 -22 -17 -12 -20 -26 -19 -84 0 -67 -1 -70 -23 -70 -14 0 -23
6 -23 15 0 19 -9 19 -31 -1 -10 -9 -38 -19 -63 -21 -41 -5 -45 -3 -60 25 -9
18 -16 56 -16 90 0 53 5 66 41 121 22 33 48 65 57 71 22 12 49 13 56 1z"/>
</g>
</svg>
