<?xml version="1.0" standalone="no"?>
<!DOCTYPE svg PUBLIC "-//W3C//DTD SVG 20010904//EN"
 "http://www.w3.org/TR/2001/REC-SVG-20010904/DTD/svg10.dtd">
<svg version="1.0" xmlns="http://www.w3.org/2000/svg"
 width="86.000000pt" height="88.000000pt" viewBox="0 0 86.000000 88.000000"
 preserveAspectRatio="xMidYMid meet">
<metadata>
Created by potrace 1.13, written by Peter Selinger 2001-2015
</metadata>
<g transform="translate(0.000000,88.000000) scale(0.100000,-0.100000)"
fill="#000000" stroke="none">
<path d="M323 828 c-35 -7 -51 -20 -88 -64 -24 -30 -46 -69 -49 -87 -3 -18 -8
-53 -11 -79 -11 -84 -72 -257 -105 -294 -35 -41 -46 -75 -31 -102 6 -12 11
-36 11 -55 0 -42 31 -84 77 -103 30 -13 37 -12 73 6 21 11 55 36 74 56 34 35
35 36 92 28 35 -4 84 -20 123 -41 81 -42 109 -44 160 -10 120 79 137 131 72
213 -63 80 -221 399 -221 447 0 20 -77 83 -110 89 -14 3 -44 1 -67 -4z m80
-95 c8 -10 25 -43 37 -73 12 -30 32 -78 46 -108 13 -29 24 -54 24 -56 0 -14
126 -226 148 -249 l27 -28 -45 -40 c-50 -44 -61 -47 -99 -20 -42 30 -149 59
-230 63 l-75 3 -8 -32 c-8 -30 -53 -73 -77 -73 -14 0 -14 35 0 61 8 16 7 25
-7 40 -17 18 -16 20 6 44 24 26 50 86 50 118 0 9 4 25 9 35 28 55 47 122 57
206 11 99 90 161 137 109z"/>
<path d="M324 483 c-42 -103 -56 -145 -51 -157 4 -10 22 -12 79 -9 40 3 77 9
82 13 10 10 -72 180 -88 180 -6 0 -16 -12 -22 -27z"/>
</g>
</svg>
