<?xml version="1.0" standalone="no"?>
<!DOCTYPE svg PUBLIC "-//W3C//DTD SVG 20010904//EN"
 "http://www.w3.org/TR/2001/REC-SVG-20010904/DTD/svg10.dtd">
<svg version="1.0" xmlns="http://www.w3.org/2000/svg"
 width="56.000000pt" height="88.000000pt" viewBox="0 0 56.000000 88.000000"
 preserveAspectRatio="xMidYMid meet">
<metadata>
Created by potrace 1.13, written by Peter Selinger 2001-2015
</metadata>
<g transform="translate(0.000000,88.000000) scale(0.100000,-0.100000)"
fill="#000000" stroke="none">
<path d="M280 819 c-13 -6 -42 -7 -63 -4 -26 5 -45 2 -60 -8 -29 -19 -107
-134 -107 -158 0 -10 -5 -30 -12 -44 -10 -21 -9 -36 5 -78 10 -29 22 -90 27
-137 25 -216 45 -321 67 -346 27 -31 87 -32 143 -4 67 34 74 54 66 183 l-7
113 55 68 c88 110 136 219 136 307 0 38 -32 84 -70 104 -33 17 -141 19 -180 4z
m161 -69 c14 -8 19 -21 19 -50 0 -78 -53 -177 -149 -284 l-47 -51 8 -115 c7
-109 7 -116 -13 -132 -31 -26 -68 -23 -73 4 -13 69 -27 168 -42 283 -8 72 -20
137 -24 147 -14 26 1 89 34 141 25 38 36 47 54 44 13 -3 42 1 65 9 51 16 141
18 168 4z"/>
<path d="M257 659 c-17 -10 -18 -20 -12 -102 4 -51 11 -96 15 -101 9 -9 63 80
81 132 6 18 8 44 5 58 -5 19 -13 24 -39 24 -17 0 -40 -5 -50 -11z"/>
</g>
</svg>
