<?xml version="1.0" standalone="no"?>
<!DOCTYPE svg PUBLIC "-//W3C//DTD SVG 20010904//EN"
 "http://www.w3.org/TR/2001/REC-SVG-20010904/DTD/svg10.dtd">
<svg version="1.0" xmlns="http://www.w3.org/2000/svg"
 width="28.000000pt" height="44.000000pt" viewBox="0 0 28.000000 44.000000"
 preserveAspectRatio="xMidYMid meet">
<metadata>
Created by potrace 1.16, written by Peter Selinger 2001-2019
</metadata>
<g transform="translate(0.000000,44.000000) scale(0.100000,-0.100000)"
fill="#000000" stroke="none">
<path d="M108 404 c-15 -8 -31 -27 -34 -42 -4 -15 -22 -42 -40 -60 l-34 -33 0
-118 c0 -102 3 -120 18 -134 23 -21 62 -22 88 -3 11 9 30 12 47 9 33 -7 90 29
108 67 6 14 13 63 15 109 4 99 -13 150 -65 194 -36 30 -63 33 -103 11z m86
-65 c34 -41 40 -67 33 -158 -5 -62 -10 -79 -28 -93 -30 -25 -45 -22 -66 12
-23 39 -33 38 -33 -4 0 -31 -13 -46 -40 -46 -4 0 -11 41 -15 90 -6 75 -4 94 9
115 9 14 22 25 29 25 7 0 32 -30 55 -67 l43 -68 -3 62 c-3 45 -11 72 -30 101
-20 29 -24 42 -15 51 18 18 34 13 61 -20z"/>
</g>
</svg>
