<?xml version="1.0" standalone="no"?>
<!DOCTYPE svg PUBLIC "-//W3C//DTD SVG 20010904//EN"
 "http://www.w3.org/TR/2001/REC-SVG-20010904/DTD/svg10.dtd">
<svg version="1.0" xmlns="http://www.w3.org/2000/svg"
 width="43.000000pt" height="44.000000pt" viewBox="0 0 43.000000 44.000000"
 preserveAspectRatio="xMidYMid meet">
<metadata>
Created by potrace 1.16, written by Peter Selinger 2001-2019
</metadata>
<g transform="translate(0.000000,44.000000) scale(0.100000,-0.100000)"
fill="#000000" stroke="none">
<path d="M197 401 c-90 -29 -143 -58 -164 -88 -31 -44 -34 -62 -18 -93 11 -20
12 -36 6 -53 -11 -28 0 -90 20 -113 43 -52 152 -68 222 -32 53 27 114 83 144
135 22 38 24 47 13 73 -13 31 -49 60 -76 60 -15 0 -15 2 0 25 35 53 8 105 -55
104 -19 0 -60 -8 -92 -18z m113 -38 c0 -15 -45 -53 -63 -53 -28 0 -97 -22 -97
-31 0 -4 33 -12 73 -19 106 -17 129 -24 141 -42 22 -35 -84 -145 -158 -164
-37 -9 -94 4 -117 27 -20 20 -26 73 -9 84 5 3 10 -1 10 -9 0 -58 180 -62 211
-4 17 32 -6 44 -120 61 -117 17 -131 25 -112 61 15 27 38 40 136 72 72 24 105
29 105 17z"/>
</g>
</svg>
