<?xml version="1.0" standalone="no"?>
<!DOCTYPE svg PUBLIC "-//W3C//DTD SVG 20010904//EN"
 "http://www.w3.org/TR/2001/REC-SVG-20010904/DTD/svg10.dtd">
<svg version="1.0" xmlns="http://www.w3.org/2000/svg"
 width="72.000000pt" height="88.000000pt" viewBox="0 0 72.000000 88.000000"
 preserveAspectRatio="xMidYMid meet">
<metadata>
Created by potrace 1.13, written by Peter Selinger 2001-2015
</metadata>
<g transform="translate(0.000000,88.000000) scale(0.100000,-0.100000)"
fill="#000000" stroke="none">
<path d="M285 817 c-109 -28 -235 -105 -235 -144 0 -7 -8 -28 -17 -47 -14 -30
-14 -42 -5 -74 7 -22 17 -84 22 -138 14 -130 43 -266 64 -298 22 -35 79 -35
146 -1 54 27 80 57 80 92 0 13 2 23 5 23 3 0 53 -14 112 -30 119 -33 147 -31
197 15 35 33 36 92 1 133 -22 26 -160 92 -193 92 -20 0 -13 29 12 57 33 35 75
121 83 167 9 57 -20 111 -73 136 -54 27 -134 33 -199 17z m132 -62 c28 -8 56
-22 63 -30 35 -42 -4 -132 -96 -222 -35 -35 -64 -65 -64 -68 0 -6 126 -65 138
-65 3 0 37 -12 75 -27 72 -28 97 -54 77 -78 -23 -27 -49 -25 -166 11 -208 64
-203 64 -184 -17 7 -28 11 -51 9 -53 -77 -57 -104 -60 -112 -14 -28 160 -36
214 -42 283 -3 44 -11 85 -17 92 -12 15 14 89 40 110 36 29 167 83 223 92 3 1
28 -6 56 -14z"/>
<path d="M263 684 c-21 -9 -35 -24 -39 -40 -9 -33 1 -153 13 -165 6 -6 23 -4
44 5 52 22 108 90 123 148 14 59 -62 87 -141 52z m57 -74 c-12 -23 -30 -27
-30 -7 0 17 10 27 27 27 11 0 11 -5 3 -20z"/>
</g>
</svg>
