<?xml version="1.0" standalone="no"?>
<!DOCTYPE svg PUBLIC "-//W3C//DTD SVG 20010904//EN"
 "http://www.w3.org/TR/2001/REC-SVG-20010904/DTD/svg10.dtd">
<svg version="1.0" xmlns="http://www.w3.org/2000/svg"
 width="41.000000pt" height="44.000000pt" viewBox="0 0 41.000000 44.000000"
 preserveAspectRatio="xMidYMid meet">
<metadata>
Created by potrace 1.16, written by Peter Selinger 2001-2019
</metadata>
<g transform="translate(0.000000,44.000000) scale(0.100000,-0.100000)"
fill="#000000" stroke="none">
<path d="M228 420 c-104 -18 -154 -39 -192 -80 -28 -31 -35 -46 -30 -63 13
-45 52 -62 97 -42 12 5 1 -19 -33 -73 -54 -85 -59 -121 -20 -142 31 -16 54
-12 136 28 62 29 91 37 135 37 69 0 89 15 89 65 0 46 -30 70 -90 70 -22 0 -40
3 -40 8 0 4 16 32 35 62 39 60 43 89 18 112 -25 22 -51 27 -105 18z m72 -54
c0 -2 -29 -53 -65 -112 -36 -59 -64 -108 -63 -110 2 -1 28 4 58 12 69 18 114
18 129 0 9 -11 4 -14 -29 -14 -49 -1 -128 -25 -192 -59 -25 -14 -51 -24 -57
-22 -6 2 25 60 69 129 44 69 80 128 80 133 0 13 -29 7 -95 -19 -36 -15 -69
-24 -72 -20 -15 15 45 56 102 69 58 14 135 21 135 13z"/>
</g>
</svg>
