<?xml version="1.0" standalone="no"?>
<!DOCTYPE svg PUBLIC "-//W3C//DTD SVG 20010904//EN"
 "http://www.w3.org/TR/2001/REC-SVG-20010904/DTD/svg10.dtd">
<svg version="1.0" xmlns="http://www.w3.org/2000/svg"
 width="44.000000pt" height="40.000000pt" viewBox="0 0 44.000000 40.000000"
 preserveAspectRatio="xMidYMid meet">
<metadata>
Created by potrace 1.16, written by Peter Selinger 2001-2019
</metadata>
<g transform="translate(0.000000,40.000000) scale(0.100000,-0.100000)"
fill="#000000" stroke="none">
<path d="M276 373 c-49 -7 -93 -10 -98 -7 -5 3 -19 -1 -31 -9 -12 -8 -39 -19
-59 -26 -43 -14 -78 -53 -78 -87 0 -33 28 -57 62 -52 24 4 29 1 34 -21 24
-106 35 -137 56 -153 30 -23 61 -23 83 2 15 17 17 31 11 110 -6 71 -5 91 6 95
18 7 58 13 85 14 31 1 93 63 93 93 0 30 -28 58 -55 56 -11 -1 -60 -8 -109 -15z
m114 -41 c0 -22 -41 -41 -115 -54 -75 -13 -80 -16 -79 -39 1 -13 5 -62 8 -109
7 -83 7 -85 -11 -64 -11 12 -27 58 -37 104 l-17 82 -41 -6 c-30 -5 -39 -3 -36
6 8 25 81 51 192 68 136 22 136 22 136 12z"/>
</g>
</svg>
