<?xml version="1.0" standalone="no"?>
<!DOCTYPE svg PUBLIC "-//W3C//DTD SVG 20010904//EN"
 "http://www.w3.org/TR/2001/REC-SVG-20010904/DTD/svg10.dtd">
<svg version="1.0" xmlns="http://www.w3.org/2000/svg"
 width="34.000000pt" height="44.000000pt" viewBox="0 0 34.000000 44.000000"
 preserveAspectRatio="xMidYMid meet">
<metadata>
Created by potrace 1.16, written by Peter Selinger 2001-2019
</metadata>
<g transform="translate(0.000000,44.000000) scale(0.100000,-0.100000)"
fill="#000000" stroke="none">
<path d="M73 397 c-61 -67 -70 -114 -47 -247 19 -106 41 -135 95 -126 27 4 40
1 50 -10 15 -19 68 -14 103 10 18 11 23 25 24 61 1 25 11 72 22 103 25 71 25
99 0 112 -14 7 -20 21 -20 44 0 58 -60 87 -102 49 -17 -15 -19 -15 -37 1 -30
27 -65 29 -88 3z m51 -90 c-6 -64 8 -92 30 -62 8 11 21 31 27 45 16 31 50 70
61 70 14 0 9 -20 -18 -60 -15 -22 -24 -43 -21 -46 3 -3 21 -1 41 4 20 6 38 7
41 2 3 -4 -2 -25 -11 -46 -9 -22 -19 -61 -23 -89 -5 -42 -10 -51 -28 -53 -28
-4 -31 24 -8 88 8 24 14 45 12 47 -2 2 -21 -3 -43 -10 -37 -13 -39 -16 -42
-60 -2 -34 -8 -50 -23 -57 -24 -14 -32 5 -49 113 -12 82 -9 106 22 150 27 38
37 26 32 -36z"/>
</g>
</svg>
