<?xml version="1.0" standalone="no"?>
<!DOCTYPE svg PUBLIC "-//W3C//DTD SVG 20010904//EN"
 "http://www.w3.org/TR/2001/REC-SVG-20010904/DTD/svg10.dtd">
<svg version="1.0" xmlns="http://www.w3.org/2000/svg"
 width="36.000000pt" height="44.000000pt" viewBox="0 0 36.000000 44.000000"
 preserveAspectRatio="xMidYMid meet">
<metadata>
Created by potrace 1.16, written by Peter Selinger 2001-2019
</metadata>
<g transform="translate(0.000000,44.000000) scale(0.100000,-0.100000)"
fill="#000000" stroke="none">
<path d="M259 425 c-24 -13 -71 -73 -82 -105 -3 -10 -10 -3 -20 21 -18 41 -34
56 -62 60 -31 3 -54 -11 -70 -42 -23 -43 -18 -85 18 -157 18 -37 43 -92 55
-122 28 -70 53 -88 90 -64 40 26 61 55 67 94 14 79 50 185 72 211 26 31 35 74
21 102 -10 21 -53 22 -89 2z m37 -57 c-31 -43 -63 -123 -81 -200 -9 -42 -24
-83 -33 -92 -16 -13 -21 -5 -70 101 -41 89 -52 121 -47 144 8 34 31 38 41 7
14 -45 67 -158 74 -158 4 0 10 17 14 38 8 50 48 134 77 161 30 28 46 27 25 -1z"/>
</g>
</svg>
