<?xml version="1.0" standalone="no"?>
<!DOCTYPE svg PUBLIC "-//W3C//DTD SVG 20010904//EN"
 "http://www.w3.org/TR/2001/REC-SVG-20010904/DTD/svg10.dtd">
<svg version="1.0" xmlns="http://www.w3.org/2000/svg"
 width="38.000000pt" height="44.000000pt" viewBox="0 0 38.000000 44.000000"
 preserveAspectRatio="xMidYMid meet">
<metadata>
Created by potrace 1.16, written by Peter Selinger 2001-2019
</metadata>
<g transform="translate(0.000000,44.000000) scale(0.100000,-0.100000)"
fill="#000000" stroke="none">
<path d="M223 416 c-11 -13 -25 -42 -33 -65 -13 -40 -30 -55 -30 -27 0 25 -41
66 -65 66 -14 0 -40 -14 -60 -31 -29 -26 -35 -37 -30 -58 3 -14 6 -71 7 -125
1 -82 5 -103 20 -118 28 -28 53 -22 124 27 51 36 64 41 64 28 0 -38 20 -89 40
-101 17 -10 27 -9 60 8 50 25 59 42 49 94 -4 22 -13 97 -20 166 -8 83 -17 131
-27 143 -23 26 -76 22 -99 -7z m72 -73 c3 -32 12 -104 19 -161 12 -100 12
-103 -8 -117 -11 -8 -24 -11 -29 -6 -4 4 -11 63 -14 130 -3 67 -9 118 -13 114
-4 -4 -15 -33 -24 -65 -11 -39 -26 -64 -48 -83 l-32 -27 -18 22 -18 22 0 -35
c0 -32 -13 -47 -40 -47 -14 0 -23 219 -10 235 25 31 44 16 74 -55 15 -39 32
-70 35 -70 4 0 18 26 31 58 52 127 60 142 74 142 10 0 16 -17 21 -57z"/>
</g>
</svg>
