<?xml version="1.0" standalone="no"?>
<!DOCTYPE svg PUBLIC "-//W3C//DTD SVG 20010904//EN"
 "http://www.w3.org/TR/2001/REC-SVG-20010904/DTD/svg10.dtd">
<svg version="1.0" xmlns="http://www.w3.org/2000/svg"
 width="40.000000pt" height="44.000000pt" viewBox="0 0 40.000000 44.000000"
 preserveAspectRatio="xMidYMid meet">
<metadata>
Created by potrace 1.16, written by Peter Selinger 2001-2019
</metadata>
<g transform="translate(0.000000,44.000000) scale(0.100000,-0.100000)"
fill="#000000" stroke="none">
<path d="M80 419 c-62 -38 -65 -47 -63 -228 2 -115 13 -156 52 -175 23 -12 39
-10 121 10 52 13 106 24 120 24 25 0 68 23 82 44 16 22 7 55 -19 76 -25 20
-37 21 -100 17 l-73 -5 -1 51 c-1 29 -1 80 0 113 2 54 0 64 -21 78 -30 21 -56
20 -98 -5z m62 -136 c-2 -53 -1 -112 3 -130 l6 -34 52 6 c29 3 60 8 70 11 9 3
32 2 49 -1 30 -7 31 -8 13 -21 -10 -8 -34 -14 -53 -14 -18 0 -67 -10 -108 -22
-57 -16 -77 -19 -86 -10 -8 8 -14 61 -16 141 -4 121 -3 130 17 150 11 11 29
21 39 21 15 0 17 -10 14 -97z"/>
</g>
</svg>
