<?xml version="1.0" standalone="no"?>
<!DOCTYPE svg PUBLIC "-//W3C//DTD SVG 20010904//EN"
 "http://www.w3.org/TR/2001/REC-SVG-20010904/DTD/svg10.dtd">
<svg version="1.0" xmlns="http://www.w3.org/2000/svg"
 width="40.000000pt" height="44.000000pt" viewBox="0 0 40.000000 44.000000"
 preserveAspectRatio="xMidYMid meet">
<metadata>
Created by potrace 1.16, written by Peter Selinger 2001-2019
</metadata>
<g transform="translate(0.000000,44.000000) scale(0.100000,-0.100000)"
fill="#000000" stroke="none">
<path d="M184 374 c-24 -25 -46 -55 -50 -66 -8 -26 33 -71 58 -64 13 3 23 -5
33 -24 8 -16 15 -33 15 -39 0 -11 -96 -59 -125 -62 -11 -1 -33 1 -48 6 -34 9
-55 -7 -63 -50 -8 -46 27 -75 92 -75 44 0 70 9 160 55 60 31 116 63 126 72 23
21 23 54 -1 80 -27 29 -48 73 -62 129 -24 98 -68 111 -135 38z m87 -46 c14
-53 45 -116 71 -144 11 -12 16 -24 11 -27 -52 -32 -205 -106 -230 -112 -38 -8
-73 1 -73 18 0 9 13 11 40 9 38 -4 132 31 196 73 l22 14 -40 81 c-39 79 -40
81 -59 64 -11 -9 -22 -15 -25 -11 -9 8 46 77 62 77 7 0 18 -19 25 -42z"/>
</g>
</svg>
