<?xml version="1.0" standalone="no"?>
<!DOCTYPE svg PUBLIC "-//W3C//DTD SVG 20010904//EN"
 "http://www.w3.org/TR/2001/REC-SVG-20010904/DTD/svg10.dtd">
<svg version="1.0" xmlns="http://www.w3.org/2000/svg"
 width="36.000000pt" height="44.000000pt" viewBox="0 0 36.000000 44.000000"
 preserveAspectRatio="xMidYMid meet">
<metadata>
Created by potrace 1.16, written by Peter Selinger 2001-2019
</metadata>
<g transform="translate(0.000000,44.000000) scale(0.100000,-0.100000)"
fill="#000000" stroke="none">
<path d="M135 414 c-48 -16 -102 -70 -109 -106 -2 -15 -8 -32 -11 -38 -4 -6
-8 -26 -11 -44 -5 -45 42 -111 99 -135 23 -11 48 -29 55 -41 15 -24 69 -50
105 -50 28 0 63 36 65 66 0 12 -10 32 -23 44 l-24 23 24 32 c49 63 22 174 -57
233 -31 24 -73 30 -113 16z m99 -63 c51 -45 62 -132 21 -171 -32 -30 -31 -41
1 -80 19 -22 24 -34 16 -42 -18 -18 -66 1 -90 37 -13 22 -30 35 -43 35 -12 0
-36 15 -55 34 -39 39 -45 79 -14 96 19 10 20 10 8 -9 -11 -17 -9 -24 12 -46
30 -32 56 -35 40 -4 -9 16 -8 25 6 40 24 27 31 24 50 -18 23 -49 23 -50 34
-33 23 37 0 119 -39 140 -32 17 -50 12 -66 -20 -9 -16 -22 -30 -30 -30 -41 0
9 75 58 88 38 10 65 5 91 -17z"/>
</g>
</svg>
