<?xml version="1.0" standalone="no"?>
<!DOCTYPE svg PUBLIC "-//W3C//DTD SVG 20010904//EN"
 "http://www.w3.org/TR/2001/REC-SVG-20010904/DTD/svg10.dtd">
<svg version="1.0" xmlns="http://www.w3.org/2000/svg"
 width="39.000000pt" height="44.000000pt" viewBox="0 0 39.000000 44.000000"
 preserveAspectRatio="xMidYMid meet">
<metadata>
Created by potrace 1.16, written by Peter Selinger 2001-2019
</metadata>
<g transform="translate(0.000000,44.000000) scale(0.100000,-0.100000)"
fill="#000000" stroke="none">
<path d="M149 419 c-45 -13 -111 -80 -133 -137 -9 -23 -16 -68 -16 -100 0 -49
4 -63 31 -95 60 -73 137 -93 214 -58 120 54 183 211 121 302 -51 74 -138 110
-217 88z m107 -65 c73 -35 93 -108 53 -191 -25 -52 -88 -93 -144 -93 -30 0
-45 7 -76 39 -45 45 -49 78 -20 150 39 97 109 132 187 95z"/>
<path d="M151 327 c-24 -29 -42 -91 -37 -122 10 -54 62 -89 115 -79 51 10 77
104 46 164 -8 16 -24 34 -34 40 -27 14 -76 13 -90 -3z"/>
</g>
</svg>
