<?xml version="1.0" standalone="no"?>
<!DOCTYPE svg PUBLIC "-//W3C//DTD SVG 20010904//EN"
 "http://www.w3.org/TR/2001/REC-SVG-20010904/DTD/svg10.dtd">
<svg version="1.0" xmlns="http://www.w3.org/2000/svg"
 width="41.000000pt" height="44.000000pt" viewBox="0 0 41.000000 44.000000"
 preserveAspectRatio="xMidYMid meet">
<metadata>
Created by potrace 1.16, written by Peter Selinger 2001-2019
</metadata>
<g transform="translate(0.000000,44.000000) scale(0.100000,-0.100000)"
fill="#000000" stroke="none">
<path d="M180 400 c-11 -11 -20 -28 -20 -37 0 -14 -3 -13 -16 5 -38 55 -92 44
-125 -25 -17 -36 -20 -54 -14 -98 12 -98 42 -208 61 -222 30 -22 73 -16 104
15 l28 29 25 -24 c29 -29 73 -33 111 -8 91 60 94 252 4 331 -65 57 -122 70
-158 34z m100 -52 c46 -32 70 -82 70 -145 0 -81 -27 -132 -72 -133 -9 0 -34
24 -55 55 -21 30 -41 55 -44 55 -3 0 -13 -24 -22 -54 -16 -51 -41 -76 -58 -59
-11 12 -39 156 -39 203 0 43 14 80 30 80 6 0 10 -16 10 -36 0 -64 23 -180 31
-158 4 10 8 32 8 47 1 34 31 75 49 69 7 -2 33 -32 58 -65 l44 -61 0 39 c0 29
-11 59 -39 105 -22 36 -37 68 -35 72 9 14 30 9 64 -14z"/>
</g>
</svg>
