<?xml version="1.0" standalone="no"?>
<!DOCTYPE svg PUBLIC "-//W3C//DTD SVG 20010904//EN"
 "http://www.w3.org/TR/2001/REC-SVG-20010904/DTD/svg10.dtd">
<svg version="1.0" xmlns="http://www.w3.org/2000/svg"
 width="26.000000pt" height="44.000000pt" viewBox="0 0 26.000000 44.000000"
 preserveAspectRatio="xMidYMid meet">
<metadata>
Created by potrace 1.16, written by Peter Selinger 2001-2019
</metadata>
<g transform="translate(0.000000,44.000000) scale(0.100000,-0.100000)"
fill="#000000" stroke="none">
<path d="M174 418 c-12 -5 -31 -28 -44 -50 -16 -29 -25 -37 -33 -29 -18 18
-47 12 -72 -15 -31 -33 -33 -80 -5 -109 20 -21 20 -21 0 -76 -20 -58 -18 -92
8 -121 31 -36 92 -8 92 42 0 28 0 28 30 14 34 -17 57 -9 89 32 31 40 14 96
-35 115 -22 8 -22 9 -7 49 9 23 25 46 35 51 26 14 25 84 -1 99 -23 12 -29 12
-57 -2z m36 -47 c0 -5 -4 -11 -9 -13 -5 -1 -23 -32 -40 -67 l-30 -64 26 -31
c14 -17 32 -30 40 -28 20 5 13 -38 -9 -52 -14 -8 -23 -5 -48 19 -35 34 -45 27
-56 -35 -8 -52 -13 -62 -24 -55 -15 9 -12 49 8 103 l19 49 -24 29 c-27 34 -30
62 -6 71 10 4 23 -2 34 -15 9 -12 20 -22 23 -22 2 0 19 27 37 60 17 33 38 60
45 60 8 0 14 -4 14 -9z"/>
</g>
</svg>
