<?xml version="1.0" standalone="no"?>
<!DOCTYPE svg PUBLIC "-//W3C//DTD SVG 20010904//EN"
 "http://www.w3.org/TR/2001/REC-SVG-20010904/DTD/svg10.dtd">
<svg version="1.0" xmlns="http://www.w3.org/2000/svg"
 width="31.000000pt" height="44.000000pt" viewBox="0 0 31.000000 44.000000"
 preserveAspectRatio="xMidYMid meet">
<metadata>
Created by potrace 1.16, written by Peter Selinger 2001-2019
</metadata>
<g transform="translate(0.000000,44.000000) scale(0.100000,-0.100000)"
fill="#000000" stroke="none">
<path d="M202 410 c-18 -11 -35 -27 -38 -35 -5 -12 -10 -11 -33 6 -33 24 -61
17 -105 -27 -28 -29 -28 -30 -24 -129 3 -84 8 -108 31 -153 36 -69 63 -82 112
-53 20 11 46 19 58 17 25 -4 67 15 87 39 12 15 15 62 7 110 -2 11 0 62 4 114
5 59 4 101 -2 113 -13 24 -55 23 -97 -2z m47 -90 c-5 -30 -6 -90 -2 -133 5
-62 3 -81 -8 -88 -25 -16 -39 -10 -39 17 0 25 -2 24 -46 -21 -28 -29 -49 -44
-55 -38 -5 5 -18 35 -29 66 -25 71 -27 173 -3 199 26 29 33 21 33 -40 0 -63
25 -162 41 -162 22 0 49 66 50 125 1 80 10 107 39 122 13 7 25 11 26 10 1 -1
-2 -27 -7 -57z"/>
</g>
</svg>
