<?xml version="1.0" standalone="no"?>
<!DOCTYPE svg PUBLIC "-//W3C//DTD SVG 20010904//EN"
 "http://www.w3.org/TR/2001/REC-SVG-20010904/DTD/svg10.dtd">
<svg version="1.0" xmlns="http://www.w3.org/2000/svg"
 width="72.000000pt" height="88.000000pt" viewBox="0 0 72.000000 88.000000"
 preserveAspectRatio="xMidYMid meet">
<metadata>
Created by potrace 1.13, written by Peter Selinger 2001-2015
</metadata>
<g transform="translate(0.000000,88.000000) scale(0.100000,-0.100000)"
fill="#000000" stroke="none">
<path d="M164 802 c-24 -4 -117 -105 -128 -139 -8 -25 13 -81 37 -101 13 -11
16 -34 16 -113 0 -55 2 -103 5 -108 3 -5 11 -43 17 -85 8 -64 8 -82 -5 -108
-21 -41 -20 -71 3 -99 16 -19 28 -23 78 -24 50 0 68 5 117 35 183 110 366 326
366 433 0 59 -53 124 -148 184 -118 74 -295 136 -358 125z m113 -92 c190 -62
323 -156 323 -228 0 -21 -64 -122 -107 -167 -99 -106 -247 -215 -290 -215 -26
0 -29 11 -11 39 9 15 7 48 -10 158 -26 162 -28 220 -7 270 17 40 10 53 -31 53
-12 0 -24 6 -27 13 -7 18 60 97 82 97 10 0 45 -9 78 -20z"/>
<path d="M274 565 c-10 -39 11 -246 32 -317 9 -30 28 -21 86 40 92 96 112 160
67 208 -28 30 -112 80 -151 89 -24 6 -28 3 -34 -20z m121 -156 c-23 -44 -32
-42 -38 9 -7 60 -1 69 29 41 22 -20 22 -24 9 -50z"/>
</g>
</svg>
