<?xml version="1.0" standalone="no"?>
<!DOCTYPE svg PUBLIC "-//W3C//DTD SVG 20010904//EN"
 "http://www.w3.org/TR/2001/REC-SVG-20010904/DTD/svg10.dtd">
<svg version="1.0" xmlns="http://www.w3.org/2000/svg"
 width="30.000000pt" height="44.000000pt" viewBox="0 0 30.000000 44.000000"
 preserveAspectRatio="xMidYMid meet">

<g transform="translate(0.000000,44.000000) scale(0.100000,-0.100000)"
fill="#000000" stroke="none">
<path d="M180 419 c-19 -5 -55 -8 -80 -7 -85 4 -109 -31 -73 -107 18 -37 41
-50 72 -40 18 6 18 4 0 -67 -21 -79 -16 -111 18 -120 24 -6 62 8 67 24 3 7 12
47 21 89 10 48 29 99 51 135 29 49 33 62 25 81 -11 25 -38 28 -101 12z m68
-26 c-1 -5 -17 -37 -35 -73 -18 -36 -38 -96 -46 -135 -10 -50 -18 -71 -30 -73
-11 -2 -17 3 -17 15 0 33 41 167 61 199 10 17 19 33 19 36 0 2 -22 0 -50 -6
-45 -9 -49 -12 -44 -33 5 -18 2 -23 -15 -23 -22 0 -57 53 -46 70 3 6 36 10 73
11 37 1 78 5 92 9 34 11 42 11 38 3z"/>
</g>
</svg>
