<?xml version="1.0" standalone="no"?>
<!DOCTYPE svg PUBLIC "-//W3C//DTD SVG 20010904//EN"
 "http://www.w3.org/TR/2001/REC-SVG-20010904/DTD/svg10.dtd">
<svg version="1.0" xmlns="http://www.w3.org/2000/svg"
 width="34.000000pt" height="44.000000pt" viewBox="0 0 34.000000 44.000000"
 preserveAspectRatio="xMidYMid meet">

<g transform="translate(0.000000,44.000000) scale(0.100000,-0.100000)"
fill="#000000" stroke="none">
<path d="M133 419 c-33 -12 -104 -127 -101 -164 3 -24 8 -31 30 -33 35 -4 51
-60 23 -77 -57 -33 -76 -58 -73 -94 4 -47 35 -54 78 -17 32 26 64 35 142 40
51 3 98 34 98 66 0 30 -35 52 -76 48 -36 -3 -39 -1 -45 30 -4 18 -6 67 -4 107
2 47 -2 78 -9 83 -20 16 -41 19 -63 11z m40 -131 c7 -137 9 -142 63 -134 25 3
46 1 49 -5 13 -21 -17 -36 -79 -41 -44 -4 -80 -14 -112 -32 -26 -14 -49 -24
-52 -21 -9 8 28 43 65 60 32 15 35 20 29 48 -4 18 -9 51 -13 74 -5 41 -6 42
-27 28 -48 -34 -46 -15 9 70 51 81 61 74 68 -47z"/>
</g>
</svg>
