<?xml version="1.0" standalone="no"?>
<!DOCTYPE svg PUBLIC "-//W3C//DTD SVG 20010904//EN"
 "http://www.w3.org/TR/2001/REC-SVG-20010904/DTD/svg10.dtd">
<svg version="1.0" xmlns="http://www.w3.org/2000/svg"
 width="39.000000pt" height="44.000000pt" viewBox="0 0 39.000000 44.000000"
 preserveAspectRatio="xMidYMid meet">

<g transform="translate(0.000000,44.000000) scale(0.100000,-0.100000)"
fill="#000000" stroke="none">
<path d="M180 419 c-19 -5 -52 -14 -72 -19 -20 -6 -51 -22 -68 -36 -42 -36
-41 -73 6 -111 l35 -28 -15 -37 c-21 -50 -20 -74 4 -98 29 -29 84 -25 187 14
152 59 166 93 57 140 -35 16 -64 34 -64 40 0 7 16 26 35 43 19 17 35 38 35 46
0 40 -74 65 -140 46z m96 -40 c3 -6 -7 -23 -23 -37 -17 -15 -35 -40 -42 -55
-11 -28 -11 -28 66 -64 90 -42 90 -41 -45 -92 -136 -51 -170 -30 -124 74 l18
40 -43 27 c-24 15 -43 31 -43 36 0 16 45 49 80 60 72 22 146 27 156 11z"/>
<path d="M142 340 c-46 -11 -48 -16 -17 -36 26 -17 28 -17 41 1 12 16 20 47
12 44 -2 -1 -18 -5 -36 -9z"/>
<path d="M160 181 c-20 -40 -20 -41 -1 -41 10 0 34 6 52 14 19 7 43 16 54 20
18 7 17 9 -11 20 -70 30 -72 30 -94 -13z"/>
</g>
</svg>
