<?xml version="1.0" standalone="no"?>
<!DOCTYPE svg PUBLIC "-//W3C//DTD SVG 20010904//EN"
 "http://www.w3.org/TR/2001/REC-SVG-20010904/DTD/svg10.dtd">
<svg version="1.0" xmlns="http://www.w3.org/2000/svg"
 width="31.000000pt" height="44.000000pt" viewBox="0 0 31.000000 44.000000"
 preserveAspectRatio="xMidYMid meet">

<g transform="translate(0.000000,44.000000) scale(0.100000,-0.100000)"
fill="#000000" stroke="none">
<path d="M205 420 c-13 -15 -22 -17 -36 -10 -53 29 -98 -16 -129 -129 l-23
-84 22 -18 c17 -14 28 -16 47 -9 14 6 35 10 46 10 19 0 20 -4 15 -50 -5 -37
-2 -53 9 -65 21 -20 36 -19 67 5 29 23 40 66 57 235 10 100 10 110 -6 122 -25
18 -48 16 -69 -7z m51 -37 c-3 -8 -10 -64 -16 -124 -9 -110 -24 -159 -48 -167
-10 -3 -11 11 -6 63 l7 67 -49 -6 c-27 -4 -56 -8 -64 -9 -22 -3 -23 7 -4 71
26 91 32 102 54 102 25 0 25 -3 1 -73 l-20 -57 38 0 c35 0 39 3 45 31 3 17 6
44 6 58 0 30 35 75 51 65 6 -3 8 -13 5 -21z"/>
</g>
</svg>
