<?xml version="1.0" standalone="no"?>
<!DOCTYPE svg PUBLIC "-//W3C//DTD SVG 20010904//EN"
 "http://www.w3.org/TR/2001/REC-SVG-20010904/DTD/svg10.dtd">
<svg version="1.0" xmlns="http://www.w3.org/2000/svg"
 width="28.000000pt" height="44.000000pt" viewBox="0 0 28.000000 44.000000"
 preserveAspectRatio="xMidYMid meet">

<g transform="translate(0.000000,44.000000) scale(0.100000,-0.100000)"
fill="#000000" stroke="none">
<path d="M145 428 c-43 -15 -93 -54 -110 -88 -17 -33 -20 -122 -5 -151 7 -13
21 -19 44 -19 l34 0 7 -62 c4 -35 12 -69 17 -75 14 -18 49 -16 76 3 20 13 22
24 22 94 0 43 7 114 15 157 8 43 15 88 15 100 0 36 -63 58 -115 41z m74 -37
c9 -6 11 -16 7 -27 -10 -27 -36 -212 -36 -260 0 -27 -5 -44 -15 -47 -23 -9
-28 10 -28 105 l1 89 -22 -20 c-12 -11 -33 -22 -46 -23 -23 -3 -25 0 -28 48
-2 40 2 56 19 78 43 54 111 80 148 57z"/>
<path d="M116 341 c-20 -22 -34 -101 -19 -101 15 0 61 63 69 94 5 21 3 26 -13
26 -11 0 -28 -9 -37 -19z"/>
</g>
</svg>
