<?xml version="1.0" standalone="no"?>
<!DOCTYPE svg PUBLIC "-//W3C//DTD SVG 20010904//EN"
 "http://www.w3.org/TR/2001/REC-SVG-20010904/DTD/svg10.dtd">
<svg version="1.0" xmlns="http://www.w3.org/2000/svg"
 width="36.000000pt" height="44.000000pt" viewBox="0 0 36.000000 44.000000"
 preserveAspectRatio="xMidYMid meet">

<g transform="translate(0.000000,44.000000) scale(0.100000,-0.100000)"
fill="#000000" stroke="none">
<path d="M250 400 c-8 -5 -35 -10 -60 -10 -122 0 -202 -144 -153 -274 17 -47
20 -49 72 -63 62 -15 104 -7 157 33 60 44 96 165 66 221 -6 10 -8 30 -5 44 4
20 -1 31 -18 43 -27 18 -38 20 -59 6z m35 -50 c-3 -10 1 -33 9 -49 21 -39 20
-77 -3 -127 -20 -44 -60 -81 -98 -90 -35 -9 -113 5 -113 20 0 8 -6 26 -14 40
-7 14 -12 36 -11 49 1 12 3 32 4 45 0 12 10 31 21 42 11 11 20 25 20 30 0 22
65 51 107 48 23 -1 45 1 49 5 16 15 35 7 29 -13z"/>
<path d="M164 326 c-10 -8 -15 -18 -11 -22 4 -4 -7 -13 -25 -18 -32 -11 -33
-13 -36 -68 -3 -64 9 -75 32 -30 8 16 33 52 56 81 39 49 44 71 16 71 -7 0 -21
-6 -32 -14z"/>
<path d="M208 253 c-63 -84 -83 -124 -67 -134 17 -11 66 -4 87 14 33 26 52
109 36 151 -9 24 -17 20 -56 -31z m25 -47 c-5 -24 -39 -64 -47 -55 -4 4 41 79
48 79 2 0 1 -11 -1 -24z"/>
</g>
</svg>
