<?xml version="1.0" standalone="no"?>
<!DOCTYPE svg PUBLIC "-//W3C//DTD SVG 20010904//EN"
 "http://www.w3.org/TR/2001/REC-SVG-20010904/DTD/svg10.dtd">
<svg version="1.0" xmlns="http://www.w3.org/2000/svg"
 width="35.000000pt" height="44.000000pt" viewBox="0 0 35.000000 44.000000"
 preserveAspectRatio="xMidYMid meet">

<g transform="translate(0.000000,44.000000) scale(0.100000,-0.100000)"
fill="#000000" stroke="none">
<path d="M108 400 c-47 -31 -88 -84 -88 -112 0 -8 9 -23 20 -33 17 -15 24 -16
46 -6 15 6 29 10 31 7 7 -6 -44 -90 -67 -111 -24 -21 -26 -67 -5 -85 18 -15
63 -5 91 21 11 10 55 28 98 39 89 23 106 33 106 65 0 28 -45 49 -84 39 l-26
-6 21 48 c24 55 27 120 7 140 -7 8 -34 16 -58 20 -39 5 -51 2 -92 -26z m130
-46 c2 -18 -12 -58 -37 -108 l-40 -78 32 7 c74 16 107 18 107 6 0 -13 -3 -14
-82 -31 -31 -6 -76 -24 -100 -40 -49 -33 -75 -25 -41 12 44 47 103 162 103
200 0 50 -20 50 -61 -2 -34 -42 -59 -52 -59 -23 0 21 76 91 104 95 44 7 71 -7
74 -38z"/>
</g>
</svg>
