<?xml version="1.0" standalone="no"?>
<!DOCTYPE svg PUBLIC "-//W3C//DTD SVG 20010904//EN"
 "http://www.w3.org/TR/2001/REC-SVG-20010904/DTD/svg10.dtd">
<svg version="1.0" xmlns="http://www.w3.org/2000/svg"
 width="33.000000pt" height="44.000000pt" viewBox="0 0 33.000000 44.000000"
 preserveAspectRatio="xMidYMid meet">

<g transform="translate(0.000000,44.000000) scale(0.100000,-0.100000)"
fill="#000000" stroke="none">
<path d="M125 406 c-27 -13 -58 -33 -69 -44 -23 -27 -24 -69 -1 -86 10 -7 16
-17 13 -22 -10 -16 10 -51 30 -56 11 -3 34 1 51 10 39 18 51 9 25 -19 -34 -38
-53 -43 -89 -23 -28 15 -36 16 -49 5 -23 -19 -20 -64 7 -88 56 -51 124 -37
207 45 82 80 93 146 29 172 -25 11 -29 17 -24 34 20 61 18 75 -10 86 -40 15
-65 12 -120 -14z m105 -41 c-5 -14 -17 -36 -25 -49 -18 -27 -19 -25 46 -40 52
-11 46 -51 -20 -119 -64 -68 -130 -87 -166 -47 -19 21 -13 42 7 22 33 -33 109
-1 149 65 21 34 22 36 4 49 -18 13 -72 9 -90 -7 -15 -14 -35 -10 -35 6 0 9 6
18 14 21 26 10 69 94 49 94 -5 0 -23 -13 -41 -30 -37 -33 -52 -38 -52 -15 0 8
19 28 42 45 30 22 52 30 84 30 42 0 43 -1 34 -25z"/>
</g>
</svg>
