<?xml version="1.0" standalone="no"?>
<!DOCTYPE svg PUBLIC "-//W3C//DTD SVG 20010904//EN"
 "http://www.w3.org/TR/2001/REC-SVG-20010904/DTD/svg10.dtd">
<svg version="1.0" xmlns="http://www.w3.org/2000/svg"
 width="33.000000pt" height="44.000000pt" viewBox="0 0 33.000000 44.000000"
 preserveAspectRatio="xMidYMid meet">

<g transform="translate(0.000000,44.000000) scale(0.100000,-0.100000)"
fill="#000000" stroke="none">
<path d="M187 408 c-86 -10 -100 -18 -127 -70 -75 -144 -53 -258 51 -258 49 0
110 46 138 102 27 57 26 70 -4 106 l-25 30 39 7 c46 8 64 25 59 57 -4 29 -41
36 -131 26z m99 -37 c-3 -5 -35 -14 -71 -21 -69 -13 -100 -34 -74 -51 8 -5 21
-9 29 -9 27 0 60 -30 60 -54 0 -32 -39 -86 -78 -109 -58 -34 -107 -2 -100 66
3 27 5 29 12 12 16 -41 24 -50 48 -53 33 -4 70 41 66 77 -3 24 -8 26 -55 29
-60 3 -63 9 -30 67 19 33 29 41 62 46 64 10 137 10 131 0z m-146 -155 c0 -17
-24 -38 -33 -29 -15 15 -6 43 13 43 11 0 20 -6 20 -14z"/>
</g>
</svg>
