<?xml version="1.0" standalone="no"?>
<!DOCTYPE svg PUBLIC "-//W3C//DTD SVG 20010904//EN"
 "http://www.w3.org/TR/2001/REC-SVG-20010904/DTD/svg10.dtd">
<svg version="1.0" xmlns="http://www.w3.org/2000/svg"
 width="88.000000pt" height="88.000000pt" viewBox="0 0 88.000000 88.000000"
 preserveAspectRatio="xMidYMid meet">
<metadata>
Created by potrace 1.13, written by Peter Selinger 2001-2015
</metadata>
<g transform="translate(0.000000,88.000000) scale(0.100000,-0.100000)"
fill="#000000" stroke="none">
<path d="M122 673 c-60 -29 -64 -44 -51 -184 6 -68 14 -162 18 -209 6 -80 8
-86 33 -98 23 -11 33 -10 65 3 21 9 47 24 58 35 11 10 38 25 59 34 47 19 66 9
66 -36 0 -41 33 -84 76 -98 30 -10 45 -9 103 10 37 12 89 38 116 58 44 33 141
156 164 207 15 33 -10 58 -73 74 -47 11 -56 17 -50 30 4 9 8 32 8 51 1 29 -4
37 -29 49 -37 19 -175 27 -203 12 -15 -8 -23 -6 -37 9 -22 24 -63 26 -109 4
-26 -13 -41 -31 -65 -83 l-30 -66 -1 91 c0 75 -3 94 -18 107 -23 21 -58 21
-100 0z m68 -207 c0 -95 4 -167 10 -171 26 -16 80 56 80 106 0 11 4 27 9 37
10 19 23 52 41 98 10 27 55 62 67 51 2 -2 6 -35 10 -73 7 -77 27 -121 48 -104
7 6 11 18 10 28 -17 82 -15 92 18 112 21 13 50 20 84 20 51 0 103 -16 103 -31
0 -4 -18 -26 -41 -48 -23 -22 -38 -45 -34 -50 3 -6 32 -11 64 -11 32 0 72 -5
89 -11 l31 -11 -36 -51 c-78 -111 -151 -167 -239 -181 -51 -9 -74 10 -74 58 0
19 -6 39 -14 45 -8 6 -19 25 -26 41 -15 37 -39 38 -78 5 -17 -14 -39 -25 -49
-25 -11 0 -32 -13 -48 -30 -26 -28 -64 -40 -66 -22 -8 66 -21 205 -25 270 -7
91 1 112 42 112 l24 0 0 -164z"/>
<path d="M537 534 c-10 -10 -9 -84 2 -84 16 0 62 54 59 69 -3 17 -48 27 -61
15z"/>
<path d="M336 423 c-8 -19 8 -38 23 -29 16 10 13 46 -3 46 -8 0 -17 -8 -20
-17z"/>
<path d="M537 388 c-2 -7 0 -24 5 -37 12 -33 -14 -61 -40 -44 -30 18 -52 -2
-52 -48 0 -35 4 -41 33 -55 29 -14 36 -14 68 0 20 8 61 43 90 76 64 73 72 87
65 106 -7 19 -162 21 -169 2z"/>
<path d="M453 383 c-18 -7 -16 -23 2 -23 8 0 15 7 15 15 0 8 -1 15 -2 14 -2 0
-9 -3 -15 -6z"/>
</g>
</svg>
