<?xml version="1.0" standalone="no"?>
<!DOCTYPE svg PUBLIC "-//W3C//DTD SVG 20010904//EN"
 "http://www.w3.org/TR/2001/REC-SVG-20010904/DTD/svg10.dtd">
<svg version="1.0" xmlns="http://www.w3.org/2000/svg"
 width="88.000000pt" height="88.000000pt" viewBox="0 0 88.000000 88.000000"
 preserveAspectRatio="xMidYMid meet">
<metadata>
Created by potrace 1.13, written by Peter Selinger 2001-2015
</metadata>
<g transform="translate(0.000000,88.000000) scale(0.100000,-0.100000)"
fill="#000000" stroke="none">
<path d="M448 594 c-31 -22 -39 -24 -58 -14 -12 7 -36 10 -54 7 -18 -2 -40 2
-54 11 -32 21 -97 10 -174 -29 -77 -38 -108 -66 -108 -95 0 -36 11 -54 42 -70
24 -13 29 -20 24 -40 -3 -13 -9 -35 -12 -49 -5 -19 1 -31 24 -55 37 -36 90
-40 140 -10 40 25 52 25 52 2 0 -22 40 -62 61 -62 8 0 25 7 37 16 14 10 32 14
48 10 25 -7 84 17 84 34 0 20 25 9 56 -25 31 -34 66 -45 79 -25 3 5 18 10 32
10 15 0 37 10 50 22 16 15 34 22 56 20 25 -2 41 6 70 33 45 43 48 73 8 100
l-29 19 21 31 c12 16 25 32 29 33 4 2 8 16 8 31 0 21 -11 34 -54 62 -66 44
-143 57 -206 35 -37 -12 -42 -12 -64 5 -33 26 -64 24 -108 -7z m117 -111 c21
-41 41 -71 45 -66 4 4 10 27 13 51 4 32 2 42 -9 42 -8 0 -14 4 -14 10 0 36
132 42 185 8 19 -13 35 -29 35 -37 0 -7 -19 -30 -42 -51 -46 -43 -44 -57 12
-80 35 -14 37 -21 11 -44 -17 -15 -21 -15 -62 9 -57 32 -63 31 -55 -6 7 -35
-8 -61 -29 -53 -8 3 -22 1 -31 -4 -14 -8 -22 -5 -37 14 -10 13 -38 38 -63 55
l-44 30 -20 -43 -19 -43 1 43 c2 51 -11 67 -47 58 -25 -6 -26 -9 -20 -47 8
-44 -5 -69 -36 -69 -16 0 -19 8 -19 54 0 30 -3 62 -6 71 -6 15 -10 14 -33 -9
-91 -92 -161 -114 -161 -52 0 25 0 25 30 8 27 -15 32 -16 57 -2 16 9 29 26 31
38 4 24 -24 40 -111 64 -52 14 -76 33 -61 48 5 5 35 22 68 39 57 31 96 39 96
22 0 -13 -46 -41 -68 -41 -28 0 -34 -11 -15 -32 32 -35 140 -9 162 39 10 23
41 33 41 13 0 -27 125 7 145 39 12 21 35 -3 70 -76z"/>
<path d="M677 504 c-4 -4 -7 -23 -7 -41 0 -34 0 -34 41 -31 49 4 73 29 49 52
-18 17 -73 30 -83 20z"/>
<path d="M372 484 c-26 -18 -28 -41 -6 -72 12 -18 24 -22 52 -20 l37 3 3 53 3
52 -33 0 c-19 0 -44 -7 -56 -16z"/>
<path d="M270 446 c-15 -19 -5 -36 21 -36 22 0 25 22 5 39 -10 9 -16 8 -26 -3z"/>
<path d="M490 434 c-14 -36 -13 -39 15 -52 34 -16 42 5 20 47 -19 38 -23 38
-35 5z"/>
</g>
</svg>
