<?xml version="1.0" standalone="no"?>
<!DOCTYPE svg PUBLIC "-//W3C//DTD SVG 20010904//EN"
 "http://www.w3.org/TR/2001/REC-SVG-20010904/DTD/svg10.dtd">
<svg version="1.0" xmlns="http://www.w3.org/2000/svg"
 width="88.000000pt" height="88.000000pt" viewBox="0 0 88.000000 88.000000"
 preserveAspectRatio="xMidYMid meet">
<metadata>
Created by potrace 1.13, written by Peter Selinger 2001-2015
</metadata>
<g transform="translate(0.000000,88.000000) scale(0.100000,-0.100000)"
fill="#000000" stroke="none">
<path d="M284 847 c-16 -18 -41 -63 -54 -100 -13 -37 -27 -67 -32 -67 -5 0
-20 25 -33 55 -37 79 -73 94 -119 49 -38 -38 -33 -69 28 -197 57 -116 86 -184
86 -198 0 -4 -26 -22 -59 -39 -86 -46 -104 -112 -40 -145 27 -14 28 -18 23
-59 -8 -56 7 -82 55 -97 35 -10 45 -9 83 10 41 20 44 20 56 4 30 -42 43 -53
65 -53 13 0 28 5 35 12 7 7 30 11 52 10 29 -2 44 2 57 18 24 28 38 25 64 -11
20 -29 24 -30 68 -24 25 4 61 15 79 26 26 15 44 18 81 13 46 -6 47 -5 64 30
23 50 21 72 -8 102 l-25 25 20 29 c11 15 20 42 20 59 0 24 -8 36 -43 60 -24
16 -60 33 -80 36 -44 8 -46 18 -11 41 14 10 41 38 60 62 26 35 34 54 34 88 0
38 -4 46 -47 81 -75 62 -170 123 -192 123 -10 0 -38 -16 -62 -36 -36 -30 -48
-35 -73 -29 -17 4 -41 8 -54 9 -26 1 -27 3 -13 39 14 37 14 44 -6 78 -22 37
-41 36 -79 -4z m46 -34 c0 -5 -9 -30 -19 -58 -23 -62 -50 -233 -53 -338 -2
-75 -3 -80 -35 -108 -52 -45 -23 -65 50 -34 20 8 38 23 42 34 8 26 31 33 49
15 13 -12 22 -13 55 -3 22 7 49 21 60 33 21 23 30 83 17 105 -5 7 -14 34 -20
59 l-12 46 -21 -45 c-26 -54 -65 -92 -90 -87 -21 4 -43 47 -55 107 -16 88 53
172 117 143 14 -7 25 -16 25 -22 0 -6 13 -2 29 9 16 12 33 21 39 21 12 0 34
-197 26 -238 -5 -26 -3 -32 10 -32 48 0 166 97 166 136 0 27 -53 69 -76 60
-12 -5 -15 -19 -12 -66 3 -60 -9 -85 -37 -77 -14 5 -33 83 -34 140 -1 26 -7
56 -13 67 -10 15 -10 25 -2 38 22 34 51 25 143 -43 115 -84 116 -94 29 -180
-36 -35 -89 -73 -123 -90 -33 -16 -61 -30 -63 -31 -2 -1 7 -19 21 -41 13 -21
28 -49 32 -62 7 -24 8 -24 21 -6 19 26 17 35 -8 35 -20 0 -21 1 -3 20 24 26
76 40 123 33 42 -7 102 -42 102 -60 0 -7 -18 -30 -40 -51 -44 -42 -44 -45 18
-76 32 -16 32 -17 17 -47 l-16 -30 -54 31 -54 31 -3 -38 c-3 -34 -6 -38 -41
-45 -37 -8 -42 -5 -89 37 -28 25 -56 44 -62 42 -6 -2 -15 -18 -20 -35 -14 -50
-37 -41 -30 11 5 36 3 45 -11 51 -26 10 -35 -2 -35 -48 0 -35 -4 -45 -25 -56
-31 -17 -35 -12 -42 42 -8 72 -10 73 -48 39 -68 -59 -133 -76 -148 -38 -8 20
23 77 41 77 12 0 13 -3 5 -11 -16 -16 -5 -39 19 -39 28 0 58 18 58 35 0 16
-33 37 -53 34 -6 -1 -29 5 -49 14 -21 10 -44 17 -52 17 -16 0 -27 22 -18 37 4
5 35 24 69 43 34 18 65 40 68 50 6 19 -8 53 -97 233 -48 98 -56 121 -47 138 6
11 16 18 22 16 6 -2 34 -48 60 -103 67 -135 76 -138 91 -29 8 54 42 162 58
183 11 13 28 16 28 5z m107 -431 c-9 -9 -23 -12 -33 -8 -16 6 -15 10 11 31 25
19 31 21 33 8 2 -8 -3 -22 -11 -31z"/>
<path d="M348 605 c-22 -29 -23 -67 -3 -105 32 -62 63 -21 51 64 -9 58 -25 71
-48 41z"/>
<path d="M672 288 c-7 -7 -12 -20 -12 -30 0 -14 8 -18 34 -18 39 0 64 21 44
37 -23 18 -54 23 -66 11z"/>
<path d="M385 277 c-13 -10 -16 -21 -11 -40 5 -23 12 -27 40 -27 36 0 46 12
46 56 0 20 -5 24 -28 24 -16 0 -36 -6 -47 -13z"/>
<path d="M497 244 c-11 -11 -8 -42 4 -50 19 -11 28 10 15 34 -6 12 -15 19 -19
16z"/>
<path d="M295 230 c3 -5 8 -10 11 -10 2 0 4 5 4 10 0 6 -5 10 -11 10 -5 0 -7
-4 -4 -10z"/>
</g>
</svg>
