<?xml version="1.0" standalone="no"?>
<!DOCTYPE svg PUBLIC "-//W3C//DTD SVG 20010904//EN"
 "http://www.w3.org/TR/2001/REC-SVG-20010904/DTD/svg10.dtd">
<svg version="1.0" xmlns="http://www.w3.org/2000/svg"
 width="88.000000pt" height="88.000000pt" viewBox="0 0 88.000000 88.000000"
 preserveAspectRatio="xMidYMid meet">
<metadata>
Created by potrace 1.13, written by Peter Selinger 2001-2015
</metadata>
<g transform="translate(0.000000,88.000000) scale(0.100000,-0.100000)"
fill="#000000" stroke="none">
<path d="M285 708 c-16 -15 -36 -54 -54 -106 -31 -91 -32 -91 -71 -4 -25 55
-44 72 -78 72 -27 0 -72 -55 -72 -87 0 -14 26 -80 58 -147 93 -194 102 -215
102 -241 0 -15 10 -31 26 -41 34 -23 71 -10 101 36 21 30 29 34 68 35 31 0 51
7 68 23 31 30 37 28 37 -11 0 -41 26 -67 66 -67 69 0 230 107 283 187 33 50
38 84 18 121 -14 23 -147 128 -204 159 -31 16 -34 16 -65 0 -18 -10 -48 -28
-67 -42 -31 -23 -35 -23 -62 -10 -17 9 -39 13 -54 9 -29 -7 -30 -5 -10 32 42
81 -23 140 -90 82z m38 -67 c-6 -3 -13 -19 -17 -36 -4 -16 -11 -48 -17 -70
-12 -48 -27 -152 -37 -254 -5 -50 -12 -76 -21 -79 -9 -3 -12 0 -9 10 3 8 -2
32 -13 54 -10 21 -18 49 -19 60 0 12 -6 26 -13 32 -12 10 -43 69 -96 182 -20
41 -20 45 -5 60 10 9 18 11 20 5 18 -47 122 -240 129 -240 6 0 13 18 17 40 16
100 20 121 27 140 5 11 14 38 21 60 15 49 32 73 38 55 3 -7 0 -15 -5 -19z
m378 -113 c52 -37 91 -72 95 -86 11 -39 -33 -91 -136 -160 -91 -62 -155 -74
-137 -27 6 13 10 13 27 3 17 -11 27 -9 63 10 60 32 115 78 133 113 14 29 14
30 -22 65 -23 21 -46 34 -58 32 -19 -3 -21 -9 -18 -66 4 -62 -7 -92 -32 -92
-15 0 -36 91 -36 153 0 26 -5 56 -12 66 -9 15 -9 23 1 35 21 26 38 20 132 -46z
m-261 -13 l27 -25 18 20 c10 11 23 20 30 20 14 0 35 -121 35 -198 l-1 -57 -19
23 c-10 12 -24 47 -30 76 -15 73 -36 80 -45 15 -8 -54 -51 -109 -86 -109 -49
0 -76 173 -34 220 19 21 49 38 69 39 6 1 22 -10 36 -24z"/>
<path d="M368 475 c-7 -9 -19 -22 -25 -30 -28 -30 -5 -124 34 -139 41 -16 58
76 28 148 -17 41 -19 42 -37 21z"/>
</g>
</svg>
